<svg xmlns="http://www.w3.org/2000/svg" xmlns:xlink="http://www.w3.org/1999/xlink" width="20" height="21" viewBox="0 0 20 21">
  <metadata><?xpacket begin="﻿" id="W5M0MpCehiHzreSzNTczkc9d"?>
<x:xmpmeta xmlns:x="adobe:ns:meta/" x:xmptk="Adobe XMP Core 5.6-c138 79.159824, 2016/09/14-01:09:01        ">
   <rdf:RDF xmlns:rdf="http://www.w3.org/1999/02/22-rdf-syntax-ns#">
      <rdf:Description rdf:about=""/>
   </rdf:RDF>
</x:xmpmeta>
                                                                                                    
                                                                                                    
                                                                                                    
                                                                                                    
                                                                                                    
                                                                                                    
                                                                                                    
                                                                                                    
                                                                                                    
                                                                                                    
                                                                                                    
                                                                                                    
                                                                                                    
                                                                                                    
                                                                                                    
                                                                                                    
                                                                                                    
                                                                                                    
                                                                                                    
                                                                                                    
                           
<?xpacket end="w"?></metadata>
<defs>
    <style>
      .cls-1 {
        fill-rule: evenodd;
        filter: url(#filter);
      }
    </style>
    <filter id="filter" x="0" y="0.094" width="20" height="21" filterUnits="userSpaceOnUse">
      <feFlood result="flood" flood-color="#fff"/>
      <feComposite result="composite" operator="in" in2="SourceGraphic"/>
      <feBlend result="blend" in2="SourceGraphic"/>
    </filter>
  </defs>
  <path id="calendar_icon" data-name="calendar icon" class="cls-1" d="M19.544,3.531a1.5,1.5,0,0,0-1.082-.446H16.924V1.959A1.786,1.786,0,0,0,16.359.633,1.876,1.876,0,0,0,15,.082H14.232a1.876,1.876,0,0,0-1.358.551,1.785,1.785,0,0,0-.565,1.326V3.085H7.692V1.959A1.786,1.786,0,0,0,7.127.633,1.876,1.876,0,0,0,5.769.082H5A1.876,1.876,0,0,0,3.641.633a1.786,1.786,0,0,0-.565,1.326V3.085H1.538a1.5,1.5,0,0,0-1.082.446A1.428,1.428,0,0,0,0,4.587V19.6a1.426,1.426,0,0,0,.457,1.055,1.5,1.5,0,0,0,1.082.446H18.462a1.494,1.494,0,0,0,1.082-.446A1.425,1.425,0,0,0,20,19.6V4.587A1.428,1.428,0,0,0,19.544,3.531ZM5,19.6H1.538v-3.38H5V19.6Zm0-4.13H1.538V11.72H5v3.754Zm0-4.5H1.538V7.59H5v3.379ZM4.729,5.6a0.355,0.355,0,0,1-.114-0.264V1.959a0.358,0.358,0,0,1,.114-0.264A0.374,0.374,0,0,1,5,1.583H5.769a0.374,0.374,0,0,1,.27.112,0.358,0.358,0,0,1,.114.264V5.338a0.356,0.356,0,0,1-.114.264,0.374,0.374,0,0,1-.27.112H5A0.374,0.374,0,0,1,4.729,5.6Zm4.886,14H5.769v-3.38H9.615V19.6Zm0-4.13H5.769V11.72H9.615v3.754Zm0-4.5H5.769V7.59H9.615v3.379ZM14.231,19.6H10.385v-3.38h3.846V19.6Zm0-4.13H10.385V11.72h3.846v3.754Zm0-4.5H10.385V7.59h3.846v3.379ZM13.961,5.6a0.355,0.355,0,0,1-.114-0.264V1.959a0.358,0.358,0,0,1,.114-0.264,0.374,0.374,0,0,1,.271-0.112H15a0.374,0.374,0,0,1,.271.112,0.358,0.358,0,0,1,.114.264V5.338a0.355,0.355,0,0,1-.114.264A0.373,0.373,0,0,1,15,5.713H14.231A0.374,0.374,0,0,1,13.961,5.6Zm4.5,14H15v-3.38h3.462V19.6Zm0-4.13H15V11.72h3.462v3.754Zm0-4.5H15V7.59h3.462v3.379Z" transform="translate(0 -0.094)"/>
</svg>
