<svg xmlns="http://www.w3.org/2000/svg" xmlns:xlink="http://www.w3.org/1999/xlink" width="20" height="20" viewBox="0 0 20 20">
  <metadata><?xpacket begin="﻿" id="W5M0MpCehiHzreSzNTczkc9d"?>
<x:xmpmeta xmlns:x="adobe:ns:meta/" x:xmptk="Adobe XMP Core 5.6-c138 79.159824, 2016/09/14-01:09:01        ">
   <rdf:RDF xmlns:rdf="http://www.w3.org/1999/02/22-rdf-syntax-ns#">
      <rdf:Description rdf:about=""/>
   </rdf:RDF>
</x:xmpmeta>
                                                                                                    
                                                                                                    
                                                                                                    
                                                                                                    
                                                                                                    
                                                                                                    
                                                                                                    
                                                                                                    
                                                                                                    
                                                                                                    
                                                                                                    
                                                                                                    
                                                                                                    
                                                                                                    
                                                                                                    
                                                                                                    
                                                                                                    
                                                                                                    
                                                                                                    
                                                                                                    
                           
<?xpacket end="w"?></metadata>
<defs>
    <style>
      .cls-1 {
        fill-rule: evenodd;
        filter: url(#filter);
      }
    </style>
    <filter id="filter" x="0" y="0.094" width="20" height="20" filterUnits="userSpaceOnUse">
      <feFlood result="flood" flood-color="#fff"/>
      <feComposite result="composite" operator="in" in2="SourceGraphic"/>
      <feBlend result="blend" in2="SourceGraphic"/>
    </filter>
  </defs>
  <path id="hours_icon" data-name="hours icon" class="cls-1" d="M18.66,5.067a9.967,9.967,0,0,0-3.64-3.644A9.776,9.776,0,0,0,10,.081,9.775,9.775,0,0,0,4.98,1.424,9.958,9.958,0,0,0,1.34,5.067,9.8,9.8,0,0,0,0,10.093,9.805,9.805,0,0,0,1.34,15.119a9.967,9.967,0,0,0,3.64,3.644A9.779,9.779,0,0,0,10,20.106a9.779,9.779,0,0,0,5.02-1.343,9.97,9.97,0,0,0,3.64-3.644A9.806,9.806,0,0,0,20,10.093,9.8,9.8,0,0,0,18.66,5.067Zm-2.526,8.585a7.065,7.065,0,0,1-2.579,2.581A6.914,6.914,0,0,1,10,17.185a6.916,6.916,0,0,1-3.555-.951,7.066,7.066,0,0,1-2.578-2.581,6.938,6.938,0,0,1-.951-3.559,6.937,6.937,0,0,1,.951-3.559A7.071,7.071,0,0,1,6.445,3.952,6.918,6.918,0,0,1,10,3a6.918,6.918,0,0,1,3.555.951,7.072,7.072,0,0,1,2.579,2.581,6.937,6.937,0,0,1,.95,3.559A6.939,6.939,0,0,1,16.134,13.653ZM11.25,5.087H10.417A0.4,0.4,0,0,0,10,5.5v4.589H7.083a0.4,0.4,0,0,0-.417.417v0.834a0.4,0.4,0,0,0,.417.417h4.168a0.4,0.4,0,0,0,.417-0.417V5.5A0.4,0.4,0,0,0,11.25,5.087Z" transform="translate(0 -0.094)"/>
</svg>
