<svg xmlns="http://www.w3.org/2000/svg" xmlns:xlink="http://www.w3.org/1999/xlink" width="20" height="21" viewBox="0 0 20 21">
  <metadata><?xpacket begin="﻿" id="W5M0MpCehiHzreSzNTczkc9d"?>
<x:xmpmeta xmlns:x="adobe:ns:meta/" x:xmptk="Adobe XMP Core 5.6-c138 79.159824, 2016/09/14-01:09:01        ">
   <rdf:RDF xmlns:rdf="http://www.w3.org/1999/02/22-rdf-syntax-ns#">
      <rdf:Description rdf:about=""/>
   </rdf:RDF>
</x:xmpmeta>
                                                                                                    
                                                                                                    
                                                                                                    
                                                                                                    
                                                                                                    
                                                                                                    
                                                                                                    
                                                                                                    
                                                                                                    
                                                                                                    
                                                                                                    
                                                                                                    
                                                                                                    
                                                                                                    
                                                                                                    
                                                                                                    
                                                                                                    
                                                                                                    
                                                                                                    
                                                                                                    
                           
<?xpacket end="w"?></metadata>
<defs>
    <style>
      .cls-1 {
        fill-rule: evenodd;
        filter: url(#filter);
      }
    </style>
    <filter id="filter" x="0" y="0.094" width="20" height="21" filterUnits="userSpaceOnUse">
      <feFlood result="flood" flood-color="#fff"/>
      <feComposite result="composite" operator="in" in2="SourceGraphic"/>
      <feBlend result="blend" in2="SourceGraphic"/>
    </filter>
  </defs>
  <path id="people_icon" data-name="people icon" class="cls-1" d="M10,10.594a5.358,5.358,0,0,0,3.857-1.54,4.973,4.973,0,0,0,1.6-3.717,4.974,4.974,0,0,0-1.6-3.717A5.36,5.36,0,0,0,10,.081,5.36,5.36,0,0,0,6.142,1.62a4.974,4.974,0,0,0-1.6,3.717,4.973,4.973,0,0,0,1.6,3.717A5.358,5.358,0,0,0,10,10.594Zm9.952,5.551a13.58,13.58,0,0,0-.2-1.492,11.233,11.233,0,0,0-.377-1.485,6.917,6.917,0,0,0-.611-1.335,4.849,4.849,0,0,0-.881-1.109,3.715,3.715,0,0,0-1.215-.732,4.4,4.4,0,0,0-1.584-.275,1.765,1.765,0,0,0-.6.295q-0.469.294-1.058,0.657a6.8,6.8,0,0,1-1.534.658,6.263,6.263,0,0,1-3.793,0,6.8,6.8,0,0,1-1.534-.658q-0.59-.361-1.058-0.657a1.768,1.768,0,0,0-.6-0.295,4.4,4.4,0,0,0-1.584.275,3.717,3.717,0,0,0-1.215.732,4.849,4.849,0,0,0-.881,1.109,6.921,6.921,0,0,0-.611,1.335,11.236,11.236,0,0,0-.377,1.485,13.47,13.47,0,0,0-.2,1.492Q0,16.836,0,17.562a3.346,3.346,0,0,0,1.037,2.594,3.92,3.92,0,0,0,2.756.951H16.209a3.919,3.919,0,0,0,2.756-.951A3.345,3.345,0,0,0,20,17.562Q20,16.835,19.952,16.145Z" transform="translate(0 -0.094)"/>
</svg>
