<?xml version="1.0" encoding="UTF-8" standalone="no"?>
<svg
   xmlns:x="adobe:ns:meta/"
   xmlns:dc="http://purl.org/dc/elements/1.1/"
   xmlns:cc="http://creativecommons.org/ns#"
   xmlns:rdf="http://www.w3.org/1999/02/22-rdf-syntax-ns#"
   xmlns:svg="http://www.w3.org/2000/svg"
   xmlns="http://www.w3.org/2000/svg"
   xmlns:sodipodi="http://sodipodi.sourceforge.net/DTD/sodipodi-0.dtd"
   xmlns:inkscape="http://www.inkscape.org/namespaces/inkscape"
   width="33"
   height="33"
   viewBox="0 0 33 33"
   version="1.1"
   id="svg17"
   sodipodi:docname="ic-twitter.svg"
   inkscape:version="0.92.1 r15371">
  <sodipodi:namedview
     pagecolor="#ffffff"
     bordercolor="#666666"
     borderopacity="1"
     objecttolerance="10"
     gridtolerance="10"
     guidetolerance="10"
     inkscape:pageopacity="0"
     inkscape:pageshadow="2"
     inkscape:window-width="1366"
     inkscape:window-height="716"
     id="namedview19"
     showgrid="false"
     inkscape:zoom="7.1515152"
     inkscape:cx="14.052966"
     inkscape:cy="16.5"
     inkscape:window-x="-7"
     inkscape:window-y="-7"
     inkscape:window-maximized="1"
     inkscape:current-layer="svg17" />
  <metadata
     id="metadata2">
<?xpacket begin="ÿ" id="W5M0MpCehiHzreSzNTczkc9d"?>    <x:xmpmeta
       x:xmptk="Adobe XMP Core 5.6-c138 79.159824, 2016/09/14-01:09:01        ">
      <metadata>
        <rdf:RDF>
          <rdf:Description
             rdf:about="" />
          <cc:Work
             rdf:about="">
            <dc:format>image/svg+xml</dc:format>
            <dc:type
               rdf:resource="http://purl.org/dc/dcmitype/StillImage" />
          </cc:Work>
        </rdf:RDF>
      </metadata>
    </x:xmpmeta>
<?xpacket end="w"?>  </metadata>
  <defs
     id="defs13">
    <style
       id="style4">
      .cls-1 {
        fill: #edeff2;
        stroke: #1e2633;
        stroke-width: 2px;
      }

      .cls-2 {
        fill-rule: evenodd;
        filter: url(#filter);
      }
    </style>
    <filter
       id="filter"
       x="8.906"
       y="11"
       width="14.969"
       height="12"
       filterUnits="userSpaceOnUse">
      <feFlood
         result="flood"
         flood-color="#1e2633"
         id="feFlood6" />
      <feComposite
         result="composite"
         operator="in"
         in2="SourceGraphic"
         id="feComposite8" />
      <feBlend
         result="blend"
         in2="SourceGraphic"
         id="feBlend10" />
    </filter>
  </defs>
  <g
     id="g23"
     transform="matrix(0.94285714,0,0,0.94285714,1.0314856,0.94285719)">
    <ellipse
       ry="16.5"
       rx="16.469"
       cy="16.5"
       cx="16.406"
       class="cls-1"
       id="bg_twitter"
       style="fill:#edeff2;stroke:#1e2633;stroke-width:2px" />
    <path
       d="m 23.885,12.426 a 6.206,6.206 0 0 1 -1.767,0.468 2.951,2.951 0 0 0 1.349,-1.668 6.063,6.063 0 0 1 -1.948,0.73 3.106,3.106 0 0 0 -4.413,-0.07 2.9,2.9 0 0 0 -0.9,2.142 3.32,3.32 0 0 0 0.076,0.694 8.752,8.752 0 0 1 -6.327,-3.168 3,3 0 0 0 -0.047,2.972 3.04,3.04 0 0 0 1,1.078 3.078,3.078 0 0 1 -1.387,-0.385 v 0.037 a 2.9,2.9 0 0 0 0.7,1.927 3.028,3.028 0 0 0 1.762,1.045 3.188,3.188 0 0 1 -0.807,0.1 4.033,4.033 0 0 1 -0.579,-0.046 2.958,2.958 0 0 0 1.083,1.494 3.011,3.011 0 0 0 1.786,0.605 A 6.056,6.056 0 0 1 9.657,21.674 6.638,6.638 0 0 1 8.916,21.637 8.611,8.611 0 0 0 13.625,23 9.083,9.083 0 0 0 16.694,22.489 7.842,7.842 0 0 0 19.145,21.12 9.175,9.175 0 0 0 20.9,19.145 8.747,8.747 0 0 0 22,16.816 8.5,8.5 0 0 0 22.361,14.384 c 0,-0.175 0,-0.307 -0.009,-0.394 a 6.383,6.383 0 0 0 1.533,-1.564 z"
       class="cls-2"
       id="twitter"
       inkscape:connector-curvature="0"
       style="fill-rule:evenodd;filter:url(#filter)" />
  </g>
</svg>
